<svg width="17.000000" height="20.000000" viewBox="0 0 17 20" fill="none" xmlns="http://www.w3.org/2000/svg" xmlns:xlink="http://www.w3.org/1999/xlink">
	<desc>
			Created with Pixso.
	</desc>
	<defs/>
	<path id="" d="M15.81 3.6L12.33 0.12C11.91 -0.29 11.09 -0.64 10.5 -0.64L0.5 -0.64C-0.1 -0.64 -0.58 -0.16 -0.58 0.43L-0.58 18.29C-0.58 18.88 -0.1 19.36 0.5 19.36L15.5 19.36C16.09 19.36 16.57 18.88 16.57 18.29L16.57 5.43C16.57 4.84 16.22 4.02 15.81 3.6ZM10.85 0.88C11.04 0.95 11.23 1.05 11.31 1.13L14.8 4.62C14.88 4.7 14.98 4.89 15.05 5.08L10.85 5.08L10.85 0.88ZM15.14 17.93L0.85 17.93L0.85 0.79L9.42 0.79L9.42 5.43C9.42 6.03 9.9 6.51 10.5 6.51L15.14 6.51L15.14 17.93ZM3.71 8.29L3.71 9.01C3.71 9.21 3.87 9.36 4.07 9.36L11.92 9.36C12.12 9.36 12.28 9.21 12.28 9.01L12.28 8.29C12.28 8.09 12.12 7.93 11.92 7.93L4.07 7.93C3.87 7.93 3.71 8.09 3.71 8.29ZM11.92 10.79L4.07 10.79C3.87 10.79 3.71 10.95 3.71 11.15L3.71 11.86C3.71 12.06 3.87 12.22 4.07 12.22L11.92 12.22C12.12 12.22 12.28 12.06 12.28 11.86L12.28 11.15C12.28 10.95 12.12 10.79 11.92 10.79ZM11.92 13.65L4.07 13.65C3.87 13.65 3.71 13.8 3.71 14.01L3.71 14.72C3.71 14.92 3.87 15.08 4.07 15.08L11.92 15.08C12.12 15.08 12.28 14.92 12.28 14.72L12.28 14.01C12.28 13.8 12.12 13.65 11.92 13.65Z" fill="#272733" fill-opacity="1.000000" fill-rule="nonzero"/>
</svg>
