<svg width="15.000000" height="12.000000" viewBox="0 0 15 12" fill="none" xmlns="http://www.w3.org/2000/svg" xmlns:xlink="http://www.w3.org/1999/xlink">
	<desc>
			Created with Pixso.
	</desc>
	<defs/>
	<path id="" d="M13.75 9.84C13.75 9.99 13.62 10.11 13.48 10.11L1.16 10.11C1.01 10.11 0.89 9.99 0.89 9.84L0.89 3.42C1.06 3.62 1.26 3.8 1.47 3.97C2.66 4.89 3.87 5.83 5.03 6.8C5.66 7.32 6.44 7.97 7.31 7.97L7.32 7.97L7.33 7.97C8.2 7.97 8.97 7.32 9.6 6.8C10.77 5.83 11.97 4.89 13.17 3.97C13.38 3.8 13.57 3.62 13.75 3.42L13.75 9.84ZM13.75 1.05C13.75 1.76 13.06 2.69 12.51 3.11C11.39 3.99 10.27 4.88 9.16 5.77C8.71 6.13 7.91 6.9 7.33 6.9L7.32 6.9L7.31 6.9C6.72 6.9 5.92 6.13 5.48 5.77C4.36 4.88 3.24 3.99 2.12 3.11C1.37 2.52 0.89 1.69 0.89 0.74C0.89 0.59 1.01 0.47 1.16 0.47L13.48 0.47C13.8 0.47 13.75 0.84 13.75 1.05ZM14.82 0.74C14.82 0 14.21 -0.6 13.48 -0.6L1.16 -0.6C0.42 -0.6 -0.18 0 -0.18 0.74L-0.18 9.84C-0.18 10.58 0.42 11.18 1.16 11.18L13.48 11.18C14.21 11.18 14.82 10.58 14.82 9.84L14.82 0.74Z" fill="#3E9CDC" fill-opacity="1.000000" fill-rule="nonzero"/>
</svg>
