<svg width="20.000000" height="21.000000" viewBox="0 0 20 21" fill="none" xmlns="http://www.w3.org/2000/svg" xmlns:xlink="http://www.w3.org/1999/xlink">
	<desc>
			Created with Pixso.
	</desc>
	<defs/>
	<path id="Vector" d="M15.91 13.45C15.97 13.84 15.84 14 15.71 14C15.58 14 15.4 13.85 15.19 13.53C14.98 13.22 14.91 12.87 15.01 12.69C15.05 12.63 15.11 12.59 15.18 12.57C15.25 12.55 15.33 12.56 15.4 12.59C15.74 12.71 15.87 13.22 15.91 13.45ZM14.02 14.3C14.43 14.64 14.55 15.03 14.34 15.31C14.27 15.39 14.19 15.46 14.09 15.5C14 15.54 13.89 15.56 13.79 15.55C13.56 15.55 13.34 15.48 13.16 15.33C12.79 15.02 12.68 14.51 12.92 14.22C12.98 14.16 13.04 14.11 13.12 14.08C13.2 14.05 13.28 14.04 13.36 14.04C13.6 14.05 13.84 14.14 14.02 14.3ZM13.34 17.53C15.1 17.53 17.01 18.12 19.13 19.93C19.34 20.11 19.62 19.89 19.44 19.66C17.36 17.12 15.43 16.64 13.51 16.23C11.17 15.73 9.96 14.45 9.11 13.05C8.95 12.77 8.87 12.82 8.86 13.18C8.84 13.71 8.88 14.24 8.98 14.77C8.89 14.77 8.79 14.77 8.69 14.77C7.49 14.77 6.32 14.42 5.32 13.77C4.32 13.13 3.54 12.21 3.08 11.14C2.62 10.06 2.5 8.88 2.73 7.74C2.97 6.6 3.55 5.55 4.4 4.73C5.25 3.91 6.33 3.35 7.51 3.12C8.69 2.89 9.91 3.01 11.02 3.45C12.13 3.9 13.08 4.65 13.75 5.62C14.42 6.59 14.77 7.72 14.77 8.89C14.77 9.11 14.76 9.34 14.73 9.57C14.09 9.49 13.45 9.48 12.8 9.53C12.57 9.55 12.61 9.66 12.78 9.69C14.78 10.04 16.17 11.24 16.49 13.43C16.49 13.44 16.49 13.45 16.5 13.46C16.51 13.47 16.52 13.47 16.53 13.48C16.54 13.48 16.55 13.48 16.56 13.47C16.57 13.47 16.58 13.46 16.59 13.45C17.63 11.77 18.07 9.79 17.83 7.84C17.59 5.89 16.69 4.07 15.27 2.67C13.85 1.26 11.99 0.35 9.98 0.08C7.97 -0.2 5.92 0.18 4.16 1.15C2.39 2.11 1.01 3.62 0.22 5.43C-0.57 7.24 -0.72 9.25 -0.2 11.15C0.32 13.05 1.47 14.73 3.08 15.93C4.69 17.13 6.66 17.78 8.69 17.78C10.04 17.78 11.37 17.53 13.34 17.53L13.34 17.53Z" fill="#3E9CDC" fill-opacity="1.000000" fill-rule="nonzero"/>
</svg>
