<svg width="36.000000" height="28.000000" viewBox="0 0 36 28" fill="none" xmlns="http://www.w3.org/2000/svg" xmlns:xlink="http://www.w3.org/1999/xlink">
	<desc>
			Created with Pixso.
	</desc>
	<defs/>
	<path id="" d="M32.79 24.1C32.79 24.44 32.49 24.74 32.15 24.74L2.58 24.74C2.23 24.74 1.93 24.44 1.93 24.1L1.93 8.67C2.35 9.16 2.82 9.6 3.32 10C6.19 12.21 9.08 14.46 11.88 16.79C13.38 18.06 15.25 19.6 17.34 19.6L17.36 19.6L17.38 19.6C19.47 19.6 21.34 18.06 22.85 16.79C25.64 14.46 28.53 12.21 31.4 10C31.91 9.6 32.37 9.16 32.79 8.67L32.79 24.1ZM32.79 2.99C32.79 4.7 31.14 6.93 29.84 7.95C27.15 10.06 24.45 12.19 21.78 14.32C20.72 15.18 18.79 17.03 17.38 17.03L17.36 17.03L17.34 17.03C15.94 17.03 14.01 15.18 12.94 14.32C10.27 12.19 7.58 10.06 4.89 7.95C3.08 6.52 1.93 4.54 1.93 2.24C1.93 1.9 2.23 1.6 2.58 1.6L32.15 1.6C32.91 1.6 32.79 2.49 32.79 2.99ZM35.36 2.24C35.36 0.48 33.92 -0.97 32.15 -0.97L2.58 -0.97C0.81 -0.97 -0.64 0.48 -0.64 2.24L-0.64 24.1C-0.64 25.87 0.81 27.32 2.58 27.32L32.15 27.32C33.92 27.32 35.36 25.87 35.36 24.1L35.36 2.24Z" fill="#FFFFFF" fill-opacity="1.000000" fill-rule="nonzero"/>
</svg>
