<svg width="30.000000" height="31.000000" viewBox="0 0 30 31" fill="none" xmlns="http://www.w3.org/2000/svg" xmlns:xlink="http://www.w3.org/1999/xlink">
	<desc>
			Created with Pixso.
	</desc>
	<defs/>
	<path id="" d="M24.78 22.96C24.78 24.37 23.62 25.53 22.21 25.53C20.8 25.53 19.64 24.37 19.64 22.96C19.64 21.55 20.8 20.39 22.21 20.39C23.62 20.39 24.78 21.55 24.78 22.96ZM9.35 7.53C9.35 8.94 8.19 10.1 6.78 10.1C5.37 10.1 4.21 8.94 4.21 7.53C4.21 6.12 5.37 4.96 6.78 4.96C8.19 4.96 9.35 6.12 9.35 7.53ZM29.92 22.96C29.92 18.7 26.47 15.25 22.21 15.25C17.95 15.25 14.5 18.7 14.5 22.96C14.5 27.22 17.95 30.67 22.21 30.67C26.47 30.67 29.92 27.22 29.92 22.96ZM28 1.1C28 0.4 27.41 -0.18 26.71 -0.18L23.5 -0.18C23.09 -0.18 22.71 0.02 22.47 0.34L1.26 28.62C1.1 28.85 0.99 29.11 0.99 29.39C0.99 30.09 1.58 30.67 2.28 30.67L5.49 30.67C5.9 30.67 6.28 30.47 6.52 30.15L27.73 1.87C27.89 1.64 28 1.38 28 1.1ZM14.5 7.53C14.5 3.27 11.04 -0.18 6.78 -0.18C2.52 -0.18 -0.93 3.27 -0.93 7.53C-0.93 11.79 2.52 15.25 6.78 15.25C11.04 15.25 14.5 11.79 14.5 7.53Z" fill="#FFFFFF" fill-opacity="1.000000" fill-rule="nonzero"/>
</svg>
