<svg width="39.000000" height="42.000000" viewBox="0 0 39 42" fill="none" xmlns="http://www.w3.org/2000/svg" xmlns:xlink="http://www.w3.org/1999/xlink">
	<desc>
			Created with Pixso.
	</desc>
	<defs/>
	<path id="Subtract" d="M-0.14 6.89C-0.14 10.99 3.18 14.31 7.27 14.31L7.27 39.08C7.27 40.15 8.14 41.01 9.2 41.01L36.2 41.01C37.27 41.01 38.13 40.15 38.13 39.08L38.13 15.94C38.13 14.87 37.51 13.39 36.77 12.64L30.5 6.38C29.75 5.63 28.27 5.01 27.2 5.01L14.45 5.01C13.61 1.83 10.72 -0.52 7.27 -0.52C3.18 -0.52 -0.14 2.8 -0.14 6.89ZM12.27 7.89L8.27 7.89L8.27 11.89L6.27 11.89L6.27 7.89L2.27 7.89L2.27 5.89L6.27 5.89L6.27 1.89L8.27 1.89L8.27 5.89L12.27 5.89L12.27 7.89ZM14.66 7.58C14.39 10.47 12.47 12.88 9.85 13.85L9.85 38.44L35.56 38.44L35.56 17.87L27.2 17.87C26.14 17.87 25.27 17 25.27 15.94L25.27 7.58L14.66 7.58ZM27.85 7.74C28.19 7.86 28.53 8.04 28.67 8.18L34.96 14.47C35.1 14.61 35.28 14.95 35.4 15.3L27.85 15.3L27.85 7.74ZM14.99 21.08L14.99 22.37C14.99 22.73 15.27 23.01 15.63 23.01L29.77 23.01C30.14 23.01 30.42 22.73 30.42 22.37L30.42 21.08C30.42 20.72 30.14 20.44 29.77 20.44L15.63 20.44C15.27 20.44 14.99 20.72 14.99 21.08ZM29.77 25.58L15.63 25.58C15.27 25.58 14.99 25.86 14.99 26.22L14.99 27.51C14.99 27.87 15.27 28.15 15.63 28.15L29.77 28.15C30.14 28.15 30.42 27.87 30.42 27.51L30.42 26.22C30.42 25.86 30.14 25.58 29.77 25.58ZM15.63 30.72L29.77 30.72C30.14 30.72 30.42 31.01 30.42 31.37L30.42 32.65C30.42 33.01 30.14 33.3 29.77 33.3L15.63 33.3C15.27 33.3 14.99 33.01 14.99 32.65L14.99 31.37C14.99 31.01 15.27 30.72 15.63 30.72Z" fill="#FFFFFF" fill-opacity="1.000000" fill-rule="evenodd"/>
</svg>
