<svg width="38.000000" height="26.000000" viewBox="0 0 38 26" fill="none" xmlns="http://www.w3.org/2000/svg" xmlns:xlink="http://www.w3.org/1999/xlink">
	<desc>
			Created with Pixso.
	</desc>
	<defs/>
	<path id="" d="M14.72 17.53L14.72 15.6L17.3 15.6L17.3 9.82L17.26 9.82C16.93 10.32 16.63 10.54 16.15 10.96L14.6 9.35L17.58 6.6L19.87 6.6L19.87 15.6L22.44 15.6L22.44 17.53L14.72 17.53ZM25.01 12.39C25.01 8.73 22.8 4.03 18.58 4.03C14.36 4.03 12.15 8.73 12.15 12.39C12.15 16.04 14.36 20.74 18.58 20.74C22.8 20.74 25.01 16.04 25.01 12.39ZM35.3 17.53C32.46 17.53 30.15 19.84 30.15 22.67L7.01 22.67C7.01 19.84 4.7 17.53 1.87 17.53L1.87 7.24C4.7 7.24 7.01 4.93 7.01 2.1L30.15 2.1C30.15 4.93 32.46 7.24 35.3 7.24L35.3 17.53ZM37.87 0.82C37.87 0.11 37.28 -0.47 36.58 -0.47L0.58 -0.47C-0.12 -0.47 -0.7 0.11 -0.7 0.82L-0.7 23.96C-0.7 24.66 -0.12 25.24 0.58 25.24L36.58 25.24C37.28 25.24 37.87 24.66 37.87 23.96L37.87 0.82Z" fill="#FFFFFF" fill-opacity="1.000000" fill-rule="nonzero"/>
</svg>
