<svg width="11.000000" height="13.000000" viewBox="0 0 11 13" fill="none" xmlns="http://www.w3.org/2000/svg" xmlns:xlink="http://www.w3.org/1999/xlink">
	<desc>
			Created with Pixso.
	</desc>
	<defs/>
	<path id="В" d="M10.18 8.28C10.18 8.93 10.05 9.5 9.81 10C9.56 10.49 9.23 10.89 8.81 11.22C8.32 11.6 7.78 11.88 7.19 12.04C6.6 12.21 5.85 12.29 4.95 12.29L-0.29 12.29L-0.29 -0.8L4.33 -0.8C5.29 -0.8 6.02 -0.76 6.51 -0.68C7.01 -0.61 7.47 -0.46 7.91 -0.23C8.38 0.03 8.73 0.36 8.95 0.78C9.19 1.21 9.31 1.69 9.31 2.24C9.31 2.88 9.14 3.45 8.82 3.95C8.51 4.45 8.07 4.81 7.5 5.05L7.5 5.12C8.31 5.29 8.96 5.64 9.45 6.16C9.93 6.68 10.18 7.39 10.18 8.28ZM5.97 2.9C5.97 2.69 5.91 2.47 5.8 2.25C5.69 2.03 5.53 1.87 5.3 1.77C5.08 1.67 4.82 1.63 4.52 1.62C4.23 1.61 3.79 1.6 3.21 1.6L2.98 1.6L2.98 4.37L3.39 4.37C3.95 4.37 4.35 4.36 4.57 4.35C4.8 4.34 5.03 4.28 5.27 4.17C5.53 4.04 5.72 3.88 5.82 3.66C5.92 3.44 5.97 3.19 5.97 2.9ZM6.79 8.22C6.79 7.82 6.71 7.5 6.55 7.27C6.38 7.04 6.14 6.87 5.81 6.75C5.61 6.68 5.33 6.63 4.98 6.63C4.64 6.62 4.17 6.61 3.58 6.61L2.98 6.61L2.98 9.89L3.15 9.89C4.01 9.89 4.6 9.88 4.93 9.87C5.26 9.86 5.59 9.78 5.93 9.63C6.23 9.51 6.45 9.32 6.58 9.07C6.72 8.82 6.79 8.54 6.79 8.22Z" fill="#3E9CDC" fill-opacity="1.000000" fill-rule="nonzero"/>
</svg>
