<svg width="18.000000" height="18.000000" viewBox="0 0 18 18" fill="none" xmlns="http://www.w3.org/2000/svg" xmlns:xlink="http://www.w3.org/1999/xlink">
	<desc>
			Created with Pixso.
	</desc>
	<defs/>
	<path id="Combined Shape" d="M8.34 0C9.75 0 11.09 0.32 12.29 0.9C12.48 0.98 12.67 1.08 12.86 1.19L12.03 1.92L10.8 0.64L8.66 2.51L7.41 1.17L3.49 4.65L6 7.39L5.02 8.24L7.49 10.98L6.51 11.83L10.06 15.72L12.15 13.82L13.98 15.86C13.62 16.13 13.22 16.4 12.79 16.64C11.48 17.37 9.97 17.8 8.35 17.8C3.38 17.8 -0.66 13.8 -0.66 8.89C-0.68 4.01 3.37 0 8.34 0ZM6.68 8.34L8.83 6.44L10.76 8.56L8.61 10.47L6.68 8.34ZM8.22 12.02L10.35 10.1L12.29 12.22L10.14 14.12L8.22 12.02ZM5.15 4.72L7.3 2.82L9.23 4.94L7.08 6.85L5.15 4.72ZM9.09 3.7L10.69 2.27L12.14 3.85L10.54 5.3L9.09 3.7ZM11.95 10.25L13.55 8.82L14.99 10.42L13.39 11.85L11.95 10.25ZM13.36 13.46L14.96 12.03L16.4 13.61L14.8 15.06L13.36 13.46ZM14.01 6.12L15.08 5.16L16.04 6.22L14.97 7.17L14.01 6.12ZM12.64 2.97L13.7 2L14.67 3.07L13.6 4.02L12.64 2.97ZM15.37 9.26L16.44 8.31L17.42 9.36L16.33 10.32L15.37 9.26ZM10.57 6.9L12.17 5.47L13.62 7.05L12.02 8.48L10.57 6.9Z" fill="#3E9CDC" fill-opacity="1.000000" fill-rule="nonzero"/>
</svg>
